PathFileType	4	(X/Y/Z)	/Users/itak/Documents/Research/Walk-IL/dataset/trc/00374_00011.trc
DataRate	CameraRate	NumFrames	NumMarkers	Units	OrigDataRate	OrigDataStartFrame	OrigNumFrames
100.000000	100.000000	4	54	mm	100.000000	266	532
Frame#	Time	RPSI			LPSI			L3			STRN			T10			C7			CLAV			RBAK			LBAK			LSHO			LUPA			LAEL			LAOL			LWTS			LWPS			LFRA			LIFD			LHPS			LHTS			RSHO			RUPA			RAEL			RAOL			RWTS			RWPS			RFRA			RIFD			RHTS			RHPS			RBHD			LFHD			RFHD			LBHD			LHIP			RHIP			RASI			LASI			LKNE			LTHI			LANK			LTIP			LTOE			LMT1			LMT5			LHEE			RKNE			RTHI			RANK			RTIP			RTOE			RMT1			RMT5			RHEE			*53			
		X1	Y1	Z1	X2	Y2	Z2	X3	Y3	Z3	X4	Y4	Z4	X5	Y5	Z5	X6	Y6	Z6	X7	Y7	Z7	X8	Y8	Z8	X9	Y9	Z9	X10	Y10	Z10	X11	Y11	Z11	X12	Y12	Z12	X13	Y13	Z13	X14	Y14	Z14	X15	Y15	Z15	X16	Y16	Z16	X17	Y17	Z17	X18	Y18	Z18	X19	Y19	Z19	X20	Y20	Z20	X21	Y21	Z21	X22	Y22	Z22	X23	Y23	Z23	X24	Y24	Z24	X25	Y25	Z25	X26	Y26	Z26	X27	Y27	Z27	X28	Y28	Z28	X29	Y29	Z29	X30	Y30	Z30	X31	Y31	Z31	X32	Y32	Z32	X33	Y33	Z33	X34	Y34	Z34	X35	Y35	Z35	X36	Y36	Z36	X37	Y37	Z37	X38	Y38	Z38	X39	Y39	Z39	X40	Y40	Z40	X41	Y41	Z41	X42	Y42	Z42	X43	Y43	Z43	X44	Y44	Z44	X45	Y45	Z45	X46	Y46	Z46	X47	Y47	Z47	X48	Y48	Z48	X49	Y49	Z49	X50	Y50	Z50	X51	Y51	Z51	X52	Y52	Z52	X53	Y53	Z53	X54	Y54	Z54	

267	2.66	-526.5552978515625	956.9588623046875	-19.26880264282227	-476.2822570800781	958.3892822265625	-139.2308959960938	-509.7905883789062	1016.54248046875	-68.21992492675781	-284.1203918457031	1198.8837890625	11.243821144104	-517.0374145507812	1135.511352539062	-70.05836486816406	-465.4643249511719	1382.166381835938	-66.40100860595703	-322.1320190429688	1324.897583007812	-7.014132976531982	-534.8469848632812	1244.607788085938	-17.72825622558594	-444.391845703125	1345.994262695312	-163.8493957519531	-345.8388061523438	1361.837036132812	-188.7432403564453	-359.58447265625	1250.492431640625	-267.2559204101562	-375.8316955566406	1051.336303710938	-301.9281005859375	-446.2275390625	1042.015869140625	-255.1578521728516	-324.5159912109375	792.5802001953125	-282.7023315429688	-357.3822937011719	795.8441162109375	-343.5065002441406	-376.2161254882812	947.8495483398438	-322.8007507324219	-348.7255249023438	630.93115234375	-302.5204467773438	-373.1711730957031	727.3148193359375	-348.3824462890625	-324.3808288574219	714.8916625976562	-307.8768005371094	-468.1900634765625	1374.33056640625	104.7761001586914	-502.5657653808594	1313.42138671875	160.9788513183594	-521.455322265625	1053.232177734375	228.5705413818359	-522.6455078125	1035.17236328125	136.1407775878906	-314.9722290039062	907.016845703125	232.6742401123047	-354.7910766601562	870.078857421875	288.5755004882812	-479.63330078125	998.9234619140625	251.716552734375	-214.4366607666016	768.8876342773438	258.0936889648438	-243.3443298339844	834.9558715820312	263.6431884765625	-298.8549499511719	806.0338134765625	297.98046875	-439.0885009765625	1591.421997070312	31.07691192626953	-233.9775543212891	1578.56103515625	-1.30976665019989	-286.0467834472656	1578.25439453125	85.3262939453125	-388.9953918457031	1591.42236328125	-104.2870025634766	-354.5267639160156	905.6707153320312	-200.958984375	-496.4385070800781	897.2659301757812	109.8560180664062	-382.9356994628906	922.1318359375	114.9447631835938	-271.7471008300781	930.8441162109375	-95.57210540771484	-167.85546875	480.4236145019531	-153.4050140380859	-216.0730743408203	605.4544067382812	-173.0084228515625	-81.22489166259766	54.69286727905273	-174.7118377685547	-117.9221878051758	268.8929138183594	-178.6812896728516	71.85337066650391	127.3235092163086	-44.10128784179688	0.8257803916931152	87.63658905029297	-29.9449348449707	32.7840690612793	94.93064117431641	-138.6870574951172	-134.8054351806641	35.80712509155273	-124.9869155883789	-477.6641235351562	433.6573791503906	45.45901489257812	-439.982666015625	685.6376953125	114.9956970214844	-600.7503662109375	53.26487350463867	-68.7462158203125	-482.1729431152344	313.2537536621094	9.499873161315918	-402.3326110839844	42.4970703125	-66.96392822265625	-444.2794799804688	36.67995071411133	-122.635009765625	-510.3766174316406	39.16591644287109	-24.03304100036621	-636.7467651367188	58.89648056030273	-128.0078430175781	nan	nan	nan	
268	2.67	-517.422119140625	954.90087890625	-18.69666862487793	-465.7229614257812	955.73974609375	-138.0883178710938	-500.1926574707031	1014.18115234375	-67.33518981933594	-275.4343872070312	1196.324951171875	14.56410026550293	-507.8514709472656	1133.162353515625	-69.12807464599609	-455.9469299316406	1379.712036132812	-64.68846130371094	-313.2185668945312	1322.322143554688	-4.050598621368408	-525.9246215820312	1242.267822265625	-16.64144897460938	-434.0603332519531	1343.43359375	-161.9410400390625	-335.3243103027344	1359.091796875	-186.1424255371094	-348.7518310546875	1247.396728515625	-264.3557739257812	-365.6164245605469	1048.14501953125	-298.220703125	-436.1448364257812	1039.188354492188	-251.6201477050781	-315.382568359375	789.1433715820312	-278.4203491210938	-348.3476867675781	792.487548828125	-339.1450500488281	-366.4033203125	944.6455688476562	-318.8011779785156	-341.0687866210938	627.5487060546875	-297.6575317382812	-364.6871643066406	724.0723266601562	-343.7862548828125	-315.9794311523438	711.3589477539062	-303.332763671875	-460.3272399902344	1371.860595703125	106.4187240600586	-494.9060363769531	1310.938720703125	162.4440307617188	-513.3084106445312	1051.018920898438	231.5224914550781	-514.5645751953125	1032.557373046875	139.1553192138672	-305.4300842285156	907.1311645507812	235.1179504394531	-344.3402404785156	870.0581665039062	291.5462646484375	-470.93896484375	997.250732421875	254.7182159423828	-202.9335784912109	770.4212646484375	260.4721984863281	-232.6131744384766	836.125244140625	265.9562377929688	-287.582275390625	806.6029052734375	300.7202758789062	-430.3756408691406	1589.138671875	32.74674224853516	-225.0027160644531	1576.307373046875	2.091943264007568	-277.7300109863281	1576.1201171875	88.30063629150391	-379.1597290039062	1588.92236328125	-102.1982116699219	-343.2416687011719	902.5467529296875	-198.2044372558594	-489.004150390625	895.6710205078125	110.9858551025391	-374.9439392089844	920.461181640625	117.9049301147461	-261.8219604492188	927.9722900390625	-91.79508209228516	-156.4518280029297	477.7626037597656	-149.8594360351562	-206.3871765136719	602.0537109375	-170.3880767822266	-53.68235015869141	55.00130462646484	-160.6163482666016	-99.03919982910156	268.5430908203125	-170.5264892578125	93.78010559082031	135.6893920898438	-27.49374389648438	23.30278778076172	94.74278259277344	-14.45315265655518	58.57738876342773	99.2838134765625	-122.4386825561523	-108.1462097167969	36.15764617919922	-111.8206024169922	-473.7026062011719	432.4969177246094	47.4771614074707	-433.6213073730469	683.4972534179688	116.3615341186523	-600.5877685546875	53.68986511230469	-68.58226776123047	-479.29541015625	312.226806640625	11.00434684753418	-402.3605346679688	42.44692611694336	-66.81938171386719	-444.29443359375	36.77980041503906	-122.4983444213867	-510.3125305175781	39.13768005371094	-23.82650756835938	-636.63720703125	59.84187316894531	-127.7794494628906	nan	nan	nan	
269	2.68	-508.2389221191406	952.7540893554688	-18.09795379638672	-455.1976013183594	952.9920043945312	-136.9342956542969	-490.5066223144531	1011.789001464844	-66.46797943115234	-266.6920776367188	1193.69140625	17.91407203674316	-498.5197143554688	1130.781982421875	-68.16996002197266	-446.2805786132812	1377.244873046875	-62.9727668762207	-304.1551513671875	1319.694702148438	-1.086541414260864	-516.863525390625	1239.904663085938	-15.58892250061035	-423.5494689941406	1340.847778320312	-160.0296325683594	-324.6257019042969	1356.299926757812	-183.5106353759766	-337.6858520507812	1244.2109375	-261.3948669433594	-355.1683654785156	1044.853515625	-294.4060668945312	-425.8082275390625	1036.260009765625	-248.0026702880859	-305.9152221679688	785.6192016601562	-273.9745483398438	-339.0441284179688	789.0122680664062	-334.5893249511719	-356.3295288085938	941.3355102539062	-314.6653137207031	-333.1998901367188	624.0611572265625	-292.4617919921875	-355.9725952148438	720.7144165039062	-338.9238891601562	-307.3230895996094	707.7162475585938	-298.5516967773438	-452.3621520996094	1369.345092773438	108.0600814819336	-487.1831970214844	1308.399658203125	163.8787841796875	-505.1753234863281	1048.71923828125	234.2691040039062	-506.4359741210938	1029.891357421875	141.9562683105469	-296.2106628417969	906.7772216796875	237.5777282714844	-334.3475036621094	869.6376342773438	294.4580383300781	-462.3751831054688	995.4178466796875	257.5511779785156	-192.0853729248047	771.27197265625	262.9219665527344	-222.4164581298828	836.6527099609375	268.3445129394531	-276.8980407714844	806.6807250976562	303.4656677246094	-421.5760498046875	1586.808959960938	34.42930603027344	-215.9460601806641	1574.03369140625	5.595542430877686	-269.3663940429688	1573.950927734375	91.34857177734375	-369.190185546875	1586.41650390625	-100.062370300293	-331.993408203125	899.4319458007812	-195.4772491455078	-481.4486694335938	894.020751953125	112.1252593994141	-366.8699951171875	918.7229614257812	120.8251800537109	-251.9160003662109	925.095703125	-88.08058166503906	-144.6585693359375	475.3489074707031	-145.9197235107422	-195.9747314453125	599.033203125	-167.4831695556641	-28.92162132263184	55.41167068481445	-146.982421875	-81.36976623535156	268.2214660644531	-162.3939361572266	113.3828735351562	142.8086395263672	-11.72401237487793	43.3326301574707	101.0253219604492	0.3322248756885529	81.77188110351562	102.9086532592773	-106.9226455688477	-84.25734710693359	36.83932495117188	-99.03787994384766	-469.5771789550781	431.3115539550781	49.51272201538086	-427.3341674804688	681.4671630859375	117.9625015258789	-600.4004516601562	54.21826171875	-68.40879058837891	-476.3151550292969	311.2192687988281	12.5313138961792	-402.3825988769531	42.41525650024414	-66.63919067382812	-444.2916564941406	36.88475799560547	-122.3663940429688	-510.2212524414062	39.14041137695312	-23.61136245727539	-636.4843139648438	60.92637634277344	-127.5369415283203	nan	nan	nan	
270	2.69	-499.0045471191406	950.54833984375	-17.46196365356445	-444.7191162109375	950.1981811523438	-135.7593994140625	-480.7596740722656	1009.416564941406	-65.60916900634766	-257.8859558105469	1191.027954101562	21.2894287109375	-489.04248046875	1128.4140625	-67.15647888183594	-436.4676208496094	1374.807373046875	-61.24749374389648	-294.9343872070312	1317.063232421875	1.871358871459961	-507.66064453125	1237.56005859375	-14.55332374572754	-412.8702697753906	1338.278686523438	-158.1095428466797	-313.7535400390625	1353.504638671875	-180.8471069335938	-326.3922424316406	1240.981567382812	-258.37255859375	-344.473876953125	1041.508056640625	-290.4859313964844	-415.2066650390625	1033.272338867188	-244.3216705322266	-296.09033203125	782.0567016601562	-269.3509826660156	-329.4338684082031	785.4636840820312	-329.8367309570312	-345.9673461914062	937.9625854492188	-310.3940734863281	-325.0713500976562	620.5182495117188	-286.926025390625	-346.9813537597656	717.285888671875	-333.7966613769531	-298.3717041015625	704.0109252929688	-293.5208129882812	-444.2681274414062	1366.829833984375	109.7120208740234	-479.3745422363281	1305.85107421875	165.2941436767578	-497.0715637207031	1046.370727539062	236.7803802490234	-498.2545471191406	1027.222900390625	144.5119171142578	-287.3105773925781	905.9655151367188	240.0586242675781	-324.8435668945312	868.8196411132812	297.3009948730469	-453.9568481445312	993.4539794921875	260.1895141601562	-181.9115905761719	771.4306640625	265.4808654785156	-212.767822265625	836.54345703125	270.8313293457031	-266.8309326171875	806.2657470703125	306.233154296875	-412.6844177246094	1584.466918945312	36.12218475341797	-206.8045654296875	1571.7734375	9.204859733581543	-260.9566040039062	1571.78173828125	94.47179412841797	-359.0787963867188	1583.937377929688	-97.87792205810547	-320.8001098632812	896.404541015625	-192.7757415771484	-473.7549743652344	892.3277587890625	113.2762603759766	-358.7494812011719	916.9166259765625	123.6627349853516	-242.0234069824219	922.2931518554688	-84.43612670898438	-132.4910736083984	473.24267578125	-141.4610900878906	-184.7848510742188	596.5100708007812	-164.1533203125	-7.082999706268311	55.70280075073242	-134.141845703125	-64.93460845947266	267.8168640136719	-154.3324737548828	130.68701171875	148.2994995117188	2.985445022583008	60.9238166809082	106.0585784912109	14.15037631988525	102.2823715209961	105.5601196289062	-92.42540740966797	-63.26602172851562	37.54851913452148	-86.98496246337891	-465.2613830566406	430.12353515625	51.52743530273438	-421.0925903320312	679.5690307617188	119.7678680419922	-600.1796875	54.87577056884766	-68.22908782958984	-473.2183227539062	310.2413940429688	14.05231285095215	-402.3903198242188	42.39830780029297	-66.43024444580078	-444.2610473632812	36.9995231628418	-122.244140625	-510.09765625	39.18628692626953	-23.39332580566406	-636.279541015625	62.1751708984375	-127.2870178222656	nan	nan	nan	
